<svg width="195" height="268" viewBox="0 0 195 268" fill="none" xmlns="http://www.w3.org/2000/svg">
<path d="M181.42 132.585L186.973 153.308" stroke="#333333" stroke-miterlimit="10"/>
<path d="M194.558 140.17L173.835 145.723" stroke="#333333" stroke-miterlimit="10"/>
<path d="M3.60864 220.025L16.4341 267.89" stroke="#333333" stroke-miterlimit="10"/>
<path d="M33.9542 237.545L-13.9114 250.37" stroke="#333333" stroke-miterlimit="10"/>
<path d="M191.66 96.3483C193.132 85.5846 185.599 75.666 174.835 74.1945C164.071 72.723 154.153 80.2558 152.681 91.0194C151.21 101.783 158.743 111.702 169.506 113.173C180.27 114.645 190.188 107.112 191.66 96.3483Z" stroke="#333333" stroke-miterlimit="10" stroke-dasharray="5 5"/>
<path d="M141.898 63.5188C145.249 35.1402 124.96 9.41836 96.5817 6.06734C68.2032 2.71633 42.4813 23.0051 39.1303 51.3837C35.7793 79.7622 56.0681 105.484 84.4466 108.835C112.825 112.186 138.547 91.8973 141.898 63.5188Z" stroke="#333333" stroke-miterlimit="10" stroke-dasharray="5 5"/>
<path d="M72.6011 68.9993C39.0326 41.711 -10.3016 46.8021 -37.59 80.3706C-64.8783 113.939 -59.7873 163.273 -26.2187 190.562C7.34981 217.85 56.6841 212.759 83.9724 179.19C111.261 145.622 106.17 96.2877 72.6011 68.9993Z" stroke="#333333" stroke-miterlimit="10" stroke-dasharray="5 5"/>
<path d="M93.8728 129.874C100.433 123.313 110.793 123.047 117.025 129.28C123.258 135.512 122.992 145.872 116.432 152.433C109.871 158.993 99.5116 159.259 93.279 153.026C87.0465 146.794 87.3123 136.434 93.8728 129.874Z" fill="#333333"/>
<path d="M161.827 202.559C165.624 202.992 168.483 199.178 167.003 195.655L153.573 163.682C152.421 160.941 149.147 159.804 146.545 161.242L100.879 186.476C96.6178 188.831 97.8935 195.268 102.731 195.82L161.827 202.559Z" fill="#3D9A9D"/>
</svg>
