<svg width="302" height="573" viewBox="0 0 302 573" fill="none" xmlns="http://www.w3.org/2000/svg">
<path d="M127.927 464.619C81.687 510.858 20.4449 536.565 -44.5069 537.019L-44.4857 533.909C87.8884 533.006 196.303 424.591 197.206 292.217C197.644 228.093 173.085 167.977 128.064 122.956C83.0424 77.9347 22.9156 53.3648 -41.1979 53.8134L-41.1768 50.7031C23.786 50.2598 84.6716 75.1444 130.284 120.757C175.897 166.37 200.771 227.267 200.338 292.218C199.884 357.148 174.166 418.379 127.927 464.619Z" fill="#3D9A9D"/>
<path d="M116.107 452.798C74.8201 494.085 18.0442 519.861 -44.3818 520.287L-44.3605 517.177C78.7709 516.337 179.634 415.473 180.486 292.331C181.326 169.199 81.8192 69.6927 -41.3122 70.5331L-41.291 67.4228C83.561 66.5708 184.448 167.458 183.607 292.321C183.17 354.736 157.383 411.523 116.107 452.798Z" fill="#3D9A9D"/>
<path d="M104.43 441.122C64.5538 480.999 11.74 503.163 -44.2781 503.556L-44.2569 500.446C10.9339 500.069 62.9516 478.219 102.229 438.942C141.517 399.654 163.356 347.626 163.732 292.457C164.109 237.266 142.967 185.542 104.222 146.797C65.467 108.042 13.7316 86.9109 -41.4371 87.2874L-41.4159 84.1771C14.5911 83.7948 67.1183 105.251 106.454 144.587C145.79 183.923 167.236 236.44 166.865 292.458C166.472 348.431 144.307 401.245 104.43 441.122Z" fill="#3D9A9D"/>
<path d="M92.6106 429.303C57.4312 464.482 9.04126 486.451 -44.1642 486.814L-44.143 483.704C60.5474 482.99 146.297 397.24 147.012 292.549C147.726 187.859 63.1389 103.272 -41.5515 103.986L-41.5303 100.876C64.8807 100.15 150.859 186.128 150.122 292.528C149.759 345.734 127.79 394.124 92.6106 429.303Z" fill="#3D9A9D"/>
<path d="M80.8682 417.56C48.7426 449.685 4.54543 469.762 -44.0498 470.093L-44.0286 466.983C51.4413 466.331 129.629 388.144 130.269 292.685C130.921 197.215 53.7934 120.088 -41.6656 120.75L-41.6443 117.64C55.5241 116.977 134.054 195.506 133.391 292.675C133.07 341.237 112.994 385.434 80.8682 417.56Z" fill="#3D9A9D"/>
<path d="M69.1249 405.817C40.0419 434.9 0.0377243 453.062 -43.9252 453.362L-43.904 450.252C42.3233 449.663 112.96 379.027 113.548 292.799C113.833 251.02 97.8332 211.856 68.4982 182.521C39.1633 153.186 -0.00122483 137.186 -41.7803 137.471L-41.7591 134.361C0.847316 134.059 40.7925 150.396 70.708 180.311C100.624 210.227 116.949 250.183 116.659 292.778C116.358 336.741 98.2078 376.734 69.1249 405.817Z" fill="#3D9A9D"/>
<path d="M57.3821 394.074C31.3529 420.103 -4.44731 436.361 -43.822 436.63L-43.8008 433.52C33.206 432.994 96.2801 369.92 96.8057 292.913C97.3313 215.907 35.1122 153.688 -41.8946 154.213L-41.8734 151.103C36.854 150.566 100.464 214.176 99.9269 292.903C99.6584 332.234 83.4113 368.045 57.3821 394.074Z" fill="#3D9A9D"/>
</svg>
