<svg width="131" height="9" viewBox="0 0 131 9" fill="none" xmlns="http://www.w3.org/2000/svg">
<g clip-path="url(#clip0_1039_4716)">
<path d="M4.46712 7.07322C4.8136 6.90639 5.16007 6.73957 5.50655 6.53939C5.85303 6.3392 6.24901 6.17238 6.59549 5.9722C7.43694 5.5051 8.27839 5.038 9.11984 4.5709C8.92185 4.77108 8.67437 4.97127 8.47638 5.17145C8.27839 5.37164 8.0804 5.53846 7.83292 5.73865C7.73392 5.83874 7.58543 5.93883 7.48644 6.03892C7.33795 6.13902 7.23895 6.27247 7.18946 6.40593C7.09046 6.53939 7.04097 6.63948 6.99147 6.77294C6.89247 6.97312 6.99147 7.24004 7.23895 7.37349C7.33795 7.44022 7.48644 7.50695 7.63493 7.54031C7.78342 7.57368 7.98141 7.57368 8.1299 7.54031C8.32789 7.50695 8.52588 7.50695 8.72387 7.47359C8.87236 7.44022 8.97135 7.40686 9.11984 7.37349C9.26834 7.34013 9.41683 7.30677 9.51582 7.24004C9.96129 7.10658 10.3573 6.90639 10.8027 6.70621C11.2482 6.50602 11.7432 6.30584 12.1887 6.07229C12.6836 5.83874 13.1291 5.60519 13.5746 5.37164C14.0201 5.17145 14.416 4.93791 14.812 4.70436C14.7625 4.73772 14.713 4.77108 14.713 4.80445C14.317 5.13809 13.9211 5.5051 13.5251 5.83874C13.2776 6.03892 13.0301 6.23911 12.8321 6.4393C12.7331 6.53939 12.6341 6.67284 12.5351 6.8063C12.4856 6.90639 12.4362 7.00649 12.4362 7.10658C12.4362 7.20667 12.3867 7.30677 12.3372 7.40686C12.2877 7.57368 12.2877 7.70714 12.4362 7.84059C12.5351 7.94069 12.7331 8.07414 12.9311 8.10751C13.2281 8.14087 13.5251 8.17424 13.8716 8.2076C14.0201 8.2076 14.1685 8.24096 14.317 8.2076C14.4655 8.2076 14.614 8.17424 14.7625 8.17424C15.0595 8.14087 15.307 8.07414 15.5545 8.00741C15.8515 7.94069 16.0989 7.84059 16.3464 7.77386C17.4354 7.40686 18.5243 6.97312 19.5637 6.53939C20.0587 6.3392 20.5042 6.10565 20.9992 5.90547C20.7022 6.17238 20.3557 6.4393 20.0587 6.70621C19.8607 6.87303 19.6627 7.03985 19.4647 7.20667C19.2668 7.37349 19.1183 7.50695 19.0193 7.70714C18.9203 7.87396 18.8708 8.04078 18.8213 8.2076C18.7718 8.44115 18.8213 8.64133 19.0688 8.80816C19.1678 8.87488 19.3163 8.94161 19.4647 8.97498C19.6132 9.00834 19.8112 9.00834 19.9597 8.97498C20.0587 8.97498 20.1577 8.94161 20.2072 8.94161C20.5042 8.90825 20.8012 8.87488 21.0486 8.84152C21.3456 8.80816 21.6426 8.74143 21.9396 8.64133C22.5336 8.47451 23.078 8.27433 23.6225 8.07414C24.7114 7.64041 25.7509 7.17331 26.7903 6.70621C26.9388 6.63948 27.0873 6.57275 27.2358 6.47266C27.2358 6.47266 27.2358 6.50602 27.1863 6.50602C27.0873 6.60612 26.9883 6.73957 26.9388 6.83967C26.8398 7.03985 26.9388 7.24004 26.9883 7.44022C27.0873 7.77386 27.6318 7.94069 28.1267 7.87396C28.4237 7.80723 28.7207 7.77386 29.0177 7.70714C29.3642 7.64041 29.7106 7.54032 30.0571 7.40686C30.7501 7.20667 31.3935 6.90639 31.9875 6.63948C32.4825 6.4393 32.928 6.20575 33.4229 6.00556C34.3634 5.60519 35.2543 5.20482 36.1948 4.77108C36.6897 4.53753 37.2342 4.27062 37.7292 4.03707C37.5312 4.20389 37.2837 4.40408 37.0857 4.5709C36.9867 4.63763 36.8877 4.73772 36.7887 4.80445C36.5412 4.97127 36.3433 5.13809 36.1453 5.30491C35.9473 5.5051 35.8978 5.73865 35.8978 5.9722C35.8978 6.07229 35.9473 6.17238 35.9473 6.27247C35.9473 6.30584 35.9968 6.37257 35.9968 6.40593C36.0463 6.50602 36.0958 6.57275 36.1453 6.67284C36.1948 6.77294 36.2938 6.87303 36.3928 6.97312C36.5412 7.07322 36.8382 7.17331 37.0857 7.17331C37.6302 7.13994 38.2242 7.10658 38.8181 7.03985C39.3626 6.97312 39.9071 6.83967 40.402 6.67284C41.4415 6.37257 42.4314 6.00556 43.4213 5.60519C44.1143 5.33828 44.8073 5.038 45.5002 4.73772C45.3517 4.87118 45.1537 4.97127 45.0053 5.10473C44.7083 5.33828 44.3618 5.57183 44.0648 5.80538C43.8173 5.9722 43.6193 6.13902 43.3718 6.30584C43.0254 6.57275 42.7284 6.87303 42.4314 7.17331C42.1839 7.44022 42.3324 7.90732 42.7779 8.04078C42.9264 8.07414 43.0254 8.14087 43.1739 8.17424C43.3224 8.2076 43.4708 8.24096 43.6193 8.27433C43.9163 8.30769 44.2133 8.27433 44.5598 8.24096C44.8568 8.2076 45.1537 8.10751 45.4012 8.00741C45.7477 7.90732 46.0942 7.77386 46.3912 7.64041C46.6882 7.54031 46.9356 7.44022 47.2326 7.34013C47.5296 7.24004 47.7771 7.13994 48.0741 7.00649C48.569 6.8063 49.064 6.60612 49.5095 6.40593C49.658 6.3392 49.8065 6.27247 49.9055 6.20575C49.856 6.30584 49.757 6.37257 49.7075 6.47266C49.559 6.67284 49.5095 6.90639 49.7075 7.10658C49.9055 7.30677 50.2025 7.40686 50.5489 7.40686C50.7964 7.40686 50.9944 7.44022 51.1924 7.44022C51.3409 7.44022 51.4894 7.40686 51.6379 7.40686C51.7864 7.37349 51.9349 7.37349 52.0338 7.34013C52.3308 7.2734 52.5783 7.17331 52.8753 7.10658C53.1228 7.00649 53.4198 6.90639 53.6673 6.8063C54.2117 6.60612 54.7067 6.37257 55.2512 6.17238C55.7956 5.93883 56.3896 5.70528 56.9341 5.47173C58.0725 4.97127 59.1614 4.43744 60.2999 3.93698C60.4979 3.83689 60.6463 3.77016 60.8443 3.67006C60.7948 3.70343 60.7453 3.73679 60.7453 3.77016C60.3494 4.1038 59.9039 4.47081 59.5079 4.83781C59.3099 5.00463 59.1119 5.20482 58.8644 5.37164C58.617 5.60519 58.32 5.80538 58.0725 6.00556C57.9735 6.10565 57.825 6.23911 57.726 6.37257C57.5775 6.53939 57.4785 6.73957 57.3795 6.93976C57.2805 7.07322 57.3795 7.2734 57.4785 7.40686C57.627 7.57368 57.924 7.70714 58.2705 7.70714C58.419 7.70714 58.5675 7.70714 58.6665 7.70714C58.815 7.70714 58.9634 7.70714 59.0624 7.70714C59.4089 7.70714 59.7554 7.64041 60.1019 7.57368C60.3989 7.50695 60.6463 7.44022 60.9433 7.34013C61.2898 7.24004 61.5868 7.13994 61.9333 7.00649C63.1707 6.53939 64.3586 6.07229 65.5466 5.57183C66.685 5.07136 67.8234 4.5709 68.9619 4.03707C69.5063 3.77016 70.0508 3.50324 70.5953 3.26969L70.5458 3.30306C70.2488 3.56997 69.9023 3.83689 69.6053 4.1038C69.4073 4.27062 69.2094 4.43744 69.0114 4.60426C68.9124 4.67099 68.8629 4.73772 68.8134 4.80445C68.7639 4.87118 68.7144 4.97127 68.6649 5.038C68.6154 5.10473 68.6154 5.20482 68.6649 5.30491C68.6649 5.43837 68.7639 5.53846 68.8134 5.67192C68.9619 5.93883 69.3578 6.13902 69.8033 6.03892C70.3478 5.93883 70.8923 5.83874 71.4367 5.73865C71.9812 5.63855 72.4762 5.47173 72.9711 5.30491C73.6146 5.10473 74.2581 4.87118 74.852 4.67099C75.644 4.40408 76.3864 4.13716 77.1784 3.83689C77.9208 3.56997 78.6138 3.30306 79.3563 3.03614C79.1583 3.1696 78.9108 3.30306 78.7128 3.43652C78.1188 3.83689 77.4754 4.20389 76.8814 4.60426C76.1884 5.038 75.545 5.47173 74.852 5.90547C74.456 6.17238 74.0601 6.4393 73.6641 6.70621C73.4166 6.87303 73.1196 7.03985 72.8721 7.20667C72.7731 7.2734 72.7236 7.34013 72.6741 7.40686C72.6246 7.47359 72.5752 7.54031 72.5257 7.64041C72.4762 7.70714 72.4762 7.80723 72.4762 7.87396C72.4762 8.00741 72.5257 8.10751 72.5257 8.24096C72.5257 8.37442 72.5752 8.50788 72.7731 8.60797C72.9711 8.74143 73.2681 8.77479 73.5156 8.74143C73.9611 8.6747 74.456 8.60797 74.9015 8.54124C75.347 8.47451 75.7925 8.37442 76.2379 8.24096C77.1784 7.97405 78.1188 7.67377 79.0098 7.34013C79.4058 7.20667 79.8512 7.03985 80.2472 6.87303C80.5442 6.73957 80.8907 6.60612 81.1877 6.50602C81.5341 6.37257 81.8806 6.23911 82.2766 6.07229C82.1776 6.13902 82.0291 6.20575 81.9301 6.27247C81.7816 6.3392 81.6331 6.40593 81.5341 6.50602C81.4351 6.57275 81.3856 6.63948 81.2866 6.70621C81.2372 6.77294 81.1877 6.83967 81.1382 6.93976C81.0887 7.03985 81.0887 7.17331 81.1382 7.2734C81.1382 7.37349 81.1876 7.44022 81.2371 7.50695C81.3856 7.70714 81.6331 7.87396 81.9796 7.97405C82.4251 8.07414 82.8706 8.04078 83.3655 7.94069C83.613 7.90732 83.8605 7.80723 84.108 7.7405C84.3555 7.67377 84.5535 7.60704 84.8009 7.54031C85.4939 7.34013 86.1869 7.13994 86.8798 6.93976C87.6223 6.70621 88.3152 6.4393 89.0082 6.20575C89.4537 6.03892 89.8991 5.8721 90.3446 5.70528C91.3346 5.33828 92.3245 4.93791 93.3144 4.53753C93.9579 4.27062 94.6509 3.97034 95.2943 3.70343C95.0468 3.87025 94.8489 4.07044 94.6014 4.23726C94.3539 4.40408 94.1064 4.60426 93.8589 4.77108C93.6114 4.97127 93.3639 5.17145 93.1165 5.37164C92.869 5.57183 92.7205 5.80538 92.5225 6.03892C92.2255 6.37257 92.473 6.83967 93.067 6.93976C93.265 6.97312 93.4629 7.00649 93.7104 7.03985C93.8589 7.07322 94.0074 7.07322 94.1559 7.07322C94.3044 7.07322 94.4529 7.03985 94.6014 7.03985C94.8984 7.00649 95.1458 6.93976 95.4428 6.83967C95.6903 6.77294 95.9873 6.67285 96.2348 6.57275C96.7297 6.40593 97.1752 6.23911 97.6702 6.07229C98.2642 5.8721 98.8086 5.63855 99.4026 5.405C99.8976 5.20482 100.393 5.00463 100.887 4.80445C100.838 4.83781 100.789 4.87118 100.739 4.90454C100.492 5.07136 100.244 5.27155 99.9966 5.47173C99.7491 5.67192 99.5511 5.90547 99.5511 6.17238C99.5511 6.3392 99.6501 6.4393 99.7491 6.57275C99.7986 6.67285 100.046 6.83967 100.195 6.87303C100.244 6.87303 100.294 6.90639 100.294 6.90639C100.442 6.97312 100.591 7.00649 100.789 7.00649C100.986 7.00649 101.184 7.00649 101.333 6.97312C101.729 6.90639 102.075 6.8063 102.422 6.67284C102.62 6.60612 102.818 6.53939 103.016 6.47266C103.214 6.40593 103.461 6.30584 103.659 6.23911C104.055 6.07229 104.501 5.90547 104.897 5.73865C105.045 5.67192 105.194 5.60519 105.342 5.53846C105.243 5.60519 105.144 5.70528 105.045 5.77201C104.897 5.90547 104.699 6.03892 104.55 6.17238C104.303 6.37257 104.055 6.53939 103.808 6.73957C103.56 6.93976 103.362 7.13994 103.164 7.34013C103.016 7.47359 103.016 7.67377 103.065 7.80723C103.115 7.94069 103.263 8.10751 103.461 8.17424C103.56 8.2076 103.659 8.24096 103.808 8.27433C103.956 8.30769 104.055 8.34106 104.204 8.37442C104.352 8.40778 104.451 8.40778 104.6 8.40778C104.847 8.40778 105.045 8.37442 105.243 8.37442C105.59 8.34106 105.986 8.24096 106.332 8.14087C106.679 8.04078 107.025 7.90732 107.372 7.80723C107.669 7.70714 107.966 7.64041 108.263 7.54031C108.609 7.44022 109.005 7.30677 109.352 7.17331C109.945 6.97312 110.539 6.77294 111.084 6.53939C111.529 6.37257 111.925 6.20575 112.371 6.03892C112.321 6.07229 112.321 6.10565 112.272 6.13902C112.024 6.37257 112.123 6.73957 112.42 6.93976C112.668 7.10658 112.965 7.2734 113.311 7.37349C113.509 7.40686 113.707 7.40686 113.905 7.40686C114.202 7.40686 114.45 7.34013 114.747 7.2734C114.945 7.24004 115.143 7.17331 115.291 7.10658C115.489 7.03985 115.737 7.00649 115.935 6.93976C116.43 6.8063 116.875 6.63948 117.37 6.4393C118.063 6.17238 118.756 5.8721 119.449 5.57183C119.399 5.67192 119.399 5.77201 119.399 5.8721C119.399 5.9722 119.449 6.10565 119.498 6.20575C119.548 6.27247 119.548 6.30584 119.597 6.37257C119.647 6.4393 119.746 6.50602 119.795 6.57275C119.944 6.67285 120.191 6.73957 120.389 6.77294C120.488 6.77294 120.587 6.77294 120.637 6.8063C120.736 6.8063 120.884 6.8063 120.983 6.8063C121.231 6.77294 121.429 6.77294 121.627 6.70621C122.419 6.57275 123.211 6.30584 123.953 6.03892C124.795 5.73865 125.636 5.405 126.428 5.07136C127.022 4.83781 127.566 4.5709 128.16 4.33735C128.21 4.30399 128.259 4.30399 128.309 4.27062C128.309 4.30399 128.259 4.33735 128.259 4.33735C127.962 4.67099 128.16 5.13809 128.655 5.33828C128.903 5.43837 129.2 5.47173 129.497 5.405C129.744 5.37164 130.041 5.23818 130.14 5.07136C130.338 4.73772 130.536 4.43744 130.734 4.1038C130.833 3.97034 130.883 3.80352 130.982 3.67006C131.031 3.56997 131.081 3.50324 131.13 3.40315C131.229 3.20297 131.279 2.96942 131.279 2.73587C131.279 2.56905 131.18 2.40222 131.031 2.30213C130.784 2.13531 130.437 2.06858 130.14 2.13531C129.843 2.20204 129.546 2.26877 129.299 2.3355C129.051 2.40222 128.853 2.53568 128.606 2.63577C128.358 2.73587 128.16 2.83596 127.913 2.90269C127.566 3.06951 127.17 3.20297 126.824 3.36979C126.329 3.56997 125.834 3.77016 125.389 3.97034C124.844 4.20389 124.3 4.40408 123.706 4.63763C123.409 4.73772 123.161 4.83781 122.864 4.93791C122.716 5.00463 122.567 5.038 122.419 5.10473C122.815 4.77108 123.26 4.43744 123.656 4.1038C124.3 3.60334 124.943 3.13624 125.537 2.63577C125.636 2.56905 125.735 2.46895 125.785 2.36886C125.834 2.20204 125.834 2.03522 125.686 1.90176C125.587 1.7683 125.339 1.66821 125.141 1.60148C124.943 1.56812 124.597 1.56812 124.448 1.66821C123.458 2.16867 122.419 2.66914 121.429 3.13624C120.835 3.43652 120.191 3.70343 119.597 4.00371C118.855 4.33735 118.113 4.67099 117.321 5.00463C116.826 5.20482 116.331 5.405 115.836 5.57183C116.034 5.47173 116.182 5.33828 116.38 5.23818C116.776 4.97127 117.172 4.73772 117.568 4.50417C118.508 3.93698 119.399 3.33642 120.34 2.80259C120.389 2.76923 120.439 2.73587 120.488 2.7025C120.835 2.46895 120.835 2.06858 120.488 1.83503C120.34 1.73494 120.092 1.66821 119.845 1.66821C119.597 1.66821 119.399 1.73494 119.201 1.83503C119.152 1.8684 119.102 1.90176 119.053 1.93513C118.558 2.16867 118.014 2.40222 117.519 2.60241C117.123 2.76923 116.677 2.96942 116.281 3.13624C115.39 3.50324 114.549 3.87025 113.658 4.23726C113.41 4.33735 113.113 4.43744 112.866 4.53753C112.222 4.77108 111.628 5.038 110.985 5.27155C110.49 5.47173 109.995 5.67192 109.451 5.83874C108.807 6.07229 108.164 6.30584 107.52 6.50602C107.223 6.60612 106.926 6.67284 106.679 6.77294C106.481 6.83967 106.233 6.90639 106.035 6.97312C106.283 6.77294 106.53 6.57275 106.827 6.37257C107.124 6.13902 107.421 5.90547 107.718 5.67192C108.164 5.33828 108.609 5.038 109.005 4.70436C109.352 4.47081 109.698 4.20389 110.044 3.97034C110.292 3.77016 110.539 3.56997 110.787 3.36979C110.985 3.20297 111.183 3.00278 111.381 2.80259C111.529 2.63577 111.529 2.40222 111.381 2.2354C111.282 2.13531 111.183 2.06858 111.084 2.03522C110.886 1.96849 110.638 1.93512 110.44 1.96849C110.292 2.00185 110.143 2.03522 110.044 2.06858C109.846 2.13531 109.698 2.20204 109.5 2.26877C109.302 2.36886 109.104 2.46895 108.906 2.53568C108.56 2.7025 108.263 2.83596 107.916 3.00278C107.421 3.23633 106.877 3.46988 106.382 3.70343C105.788 3.97034 105.144 4.23726 104.55 4.50417C104.204 4.63763 103.907 4.77108 103.56 4.90454C103.511 4.90454 103.511 4.93791 103.461 4.93791C103.857 4.67099 104.204 4.40408 104.6 4.13716C104.946 3.87025 105.342 3.60334 105.689 3.33642C105.986 3.13624 106.233 2.93605 106.53 2.73587C106.827 2.50232 107.124 2.26877 107.471 2.03522C107.57 1.96849 107.669 1.8684 107.718 1.7683C107.768 1.60148 107.768 1.43466 107.619 1.3012C107.421 1.06766 106.976 0.934198 106.58 1.03429C106.431 1.06766 106.233 1.10102 106.085 1.16775C105.837 1.26784 105.59 1.36793 105.392 1.46803C105.243 1.53475 105.045 1.60148 104.897 1.66821C104.55 1.80167 104.204 1.96849 103.857 2.10195C103.214 2.36886 102.57 2.66914 101.927 2.93605C101.135 3.26969 100.294 3.60334 99.5016 3.93698C98.8581 4.20389 98.2147 4.43744 97.5712 4.70436C97.0762 4.90454 96.5813 5.07136 96.0368 5.23818C95.8388 5.30491 95.6408 5.37164 95.3933 5.47173C95.5418 5.37164 95.6408 5.27155 95.7893 5.17145C95.9873 5.00463 96.2348 4.83781 96.4328 4.67099C96.7297 4.43744 97.0267 4.20389 97.3237 3.97034C97.7692 3.60334 98.2147 3.26969 98.6601 2.90269C98.8581 2.73587 99.0561 2.56905 99.3036 2.43559C99.5511 2.26877 99.7491 2.10195 99.9471 1.90176C100.145 1.73494 100.244 1.53475 100.343 1.33457C100.393 1.13438 100.343 0.900834 100.096 0.767377C99.8481 0.600556 99.3531 0.533828 99.0561 0.667284C96.9772 1.53475 94.8984 2.43559 92.77 3.30306C92.4235 3.46988 92.0275 3.60334 91.681 3.73679C91.0871 3.97034 90.5426 4.17053 89.9486 4.40408C88.3152 5.038 86.6818 5.63855 84.9989 6.13902C85.2959 5.9722 85.5434 5.80538 85.8404 5.67192C86.6323 5.20482 87.4243 4.77108 88.2162 4.33735C89.1567 3.80352 90.0971 3.26969 91.0376 2.73587C91.483 2.46895 91.9285 2.20204 92.4235 1.96849C92.7205 1.80167 93.0175 1.63485 93.3144 1.46803C93.6114 1.33457 93.9084 1.13438 94.2054 0.967563C94.5024 0.800741 94.5024 0.500463 94.3539 0.300278C94.2549 0.166821 94.0569 0.0667285 93.8589 0.0333642C93.6114 0 93.5124 0 93.4629 0C93.3144 0 93.166 0.0333642 93.067 0.0667285C92.671 0.266914 92.3245 0.433735 91.9285 0.63392C91.78 0.734013 91.6315 0.800741 91.483 0.900834C91.0376 1.10102 90.5921 1.3012 90.0971 1.50139C89.5527 1.73494 89.0082 1.96849 88.4637 2.2354C87.2758 2.76923 86.0384 3.26969 84.8504 3.80352C84.4545 3.97034 84.0585 4.13716 83.6625 4.30398C82.9696 4.5709 82.2766 4.83781 81.6331 5.10473C80.8907 5.405 80.1977 5.67192 79.4553 5.9722C79.1088 6.10565 78.7623 6.23911 78.4158 6.37257C77.5249 6.70621 76.6834 7.00649 75.743 7.2734C75.3965 7.37349 75.0005 7.44022 74.654 7.54031L74.7035 7.50695C74.852 7.40686 75.0005 7.30677 75.149 7.20667C75.4955 6.97312 75.7925 6.73957 76.1389 6.50602C76.8319 6.03892 77.5249 5.60519 78.2178 5.13809C78.8613 4.70436 79.5047 4.30399 80.1482 3.90361C80.4452 3.73679 80.6927 3.53661 80.9897 3.36979C81.4351 3.10287 81.8806 2.80259 82.2766 2.53568C82.4746 2.40222 82.6726 2.26877 82.8211 2.10195C83.019 1.93513 83.1675 1.7683 83.316 1.60148C83.6625 1.26784 83.118 0.767377 82.5241 0.900834C82.0786 1.00093 81.6826 1.10102 81.2371 1.23448C80.9402 1.33457 80.6432 1.46803 80.3462 1.56812C79.9007 1.73494 79.4553 1.90176 78.9603 2.06858C78.2673 2.30213 77.6239 2.53568 76.9309 2.80259C76.3369 3.00278 75.743 3.23633 75.0995 3.43652C73.9611 3.83689 72.8226 4.23726 71.6842 4.5709C71.4367 4.63763 71.1892 4.70436 70.8923 4.77108C70.9417 4.70436 71.0407 4.63763 71.0902 4.5709C71.3872 4.30399 71.7337 4.03707 72.0307 3.77016C72.3772 3.50324 72.6741 3.23633 73.0206 2.93605C73.2186 2.76923 73.4166 2.60241 73.6146 2.40222C73.8126 2.26877 73.9611 2.10195 74.1096 1.93513C74.357 1.73494 74.5055 1.50139 74.654 1.26784C74.8025 1.10102 74.8025 0.900834 74.654 0.734013C74.5055 0.533828 74.1096 0.400371 73.7631 0.500463C73.5156 0.567192 73.2681 0.63392 73.0206 0.734013C72.8226 0.800741 72.6741 0.900834 72.4762 1.00093C72.2782 1.10102 72.0307 1.20111 71.8327 1.3012C71.4367 1.50139 71.0407 1.66821 70.6448 1.83503C69.8033 2.2354 69.0114 2.60241 68.1699 2.96942C67.3285 3.33642 66.487 3.70343 65.6456 4.07044C64.8536 4.40408 64.0122 4.73772 63.2202 5.07136C62.6757 5.27155 62.1313 5.47173 61.5868 5.67192C61.0423 5.8721 60.4484 6.10565 59.9039 6.27247C59.8544 6.27247 59.8544 6.27247 59.8049 6.30584C59.9039 6.20575 60.0524 6.10565 60.1514 6.00556C60.4484 5.77201 60.6958 5.5051 60.9928 5.27155C61.4383 4.90454 61.8838 4.53753 62.2798 4.17053C62.6262 3.87025 63.0222 3.56997 63.3687 3.23633C63.6657 3.00278 63.9132 2.76923 64.2101 2.50232C64.6061 2.16867 65.0021 1.80167 65.3486 1.43466C65.4971 1.3012 65.4971 1.13438 65.4476 0.967563C65.3981 0.834106 65.2496 0.667284 65.0516 0.600556C64.9031 0.567192 64.8041 0.533828 64.6556 0.500463C64.3586 0.467099 64.1111 0.500463 63.8637 0.600556C63.5172 0.734013 63.2697 0.900834 62.9727 1.06766C61.7848 1.63485 60.5968 2.20204 59.4089 2.76923C58.6665 3.10287 57.924 3.43652 57.1815 3.77016C56.2411 4.20389 55.2512 4.60426 54.2612 5.00463C53.9147 5.13809 53.5683 5.27155 53.2218 5.405C53.4198 5.27155 53.6178 5.13809 53.8157 4.97127C54.2612 4.63763 54.7067 4.33735 55.2017 4.00371C55.4986 3.80352 55.7956 3.60334 56.0431 3.40315C56.2906 3.23633 56.5381 3.03614 56.7856 2.83596C56.9836 2.66914 57.132 2.46895 57.33 2.30213C57.528 2.06858 57.4785 1.73494 57.1815 1.53475C57.0826 1.46803 56.9341 1.4013 56.7856 1.36793C56.5876 1.33457 56.2411 1.33457 56.0926 1.43466C55.4986 1.73494 54.9047 2.03522 54.3602 2.3355C53.8652 2.60241 53.3208 2.86932 52.7763 3.13624C52.3308 3.33642 51.9349 3.56997 51.4894 3.77016C51.2914 3.87025 51.0934 3.97034 50.8954 4.07044C50.1035 4.43744 49.3115 4.80445 48.5196 5.13809C47.9751 5.37164 47.4306 5.60519 46.8366 5.83874C46.4407 6.00556 45.9952 6.17238 45.5992 6.30584C45.8467 6.10565 46.0942 5.90547 46.3912 5.70528C46.8862 5.30491 47.4306 4.93791 47.9751 4.53753C48.4206 4.20389 48.9155 3.87025 49.361 3.53661C49.6085 3.33642 49.9055 3.1696 50.153 2.96942C50.6974 2.56905 51.3409 2.26877 51.7864 1.80167C51.9843 1.56812 51.9349 1.26784 51.6379 1.06766C51.3409 0.86747 50.8954 0.834106 50.5489 0.967563C49.2125 1.56812 47.8266 2.13531 46.4902 2.7025C45.7972 3.00278 45.1043 3.26969 44.4113 3.56997C43.6193 3.90361 42.8769 4.20389 42.0849 4.50417C41.6395 4.67099 41.2435 4.80445 40.798 4.97127C40.3525 5.13809 39.9071 5.27155 39.4121 5.405C39.2141 5.47173 39.0161 5.5051 38.8181 5.53846C38.5706 5.60519 38.2737 5.63855 38.0262 5.67192C37.9767 5.67192 37.9767 5.67192 37.9272 5.67192C38.0757 5.57183 38.1747 5.47173 38.3231 5.37164C38.5211 5.20482 38.7191 5.038 38.9666 4.87118C39.2636 4.63763 39.5606 4.40408 39.8081 4.17053C40.204 3.83689 40.6 3.53661 40.996 3.20297C41.3425 2.90269 41.7384 2.63577 42.1344 2.3355C42.3819 2.13531 42.6294 1.93512 42.8769 1.70158C43.0749 1.50139 43.2729 1.3012 43.4708 1.10102C43.7183 0.86747 43.6193 0.533828 43.3224 0.367006C43.0254 0.166821 42.5799 0.133457 42.2334 0.266914C41.9859 0.367006 41.7384 0.467099 41.491 0.567192C41.3425 0.86747 41.0455 1.00093 40.7485 1.16775C40.501 1.3012 40.2535 1.4013 40.0061 1.53475C39.4616 1.80167 38.8676 2.06858 38.3231 2.36886C37.4322 2.80259 36.5412 3.23633 35.6008 3.67006C34.8088 4.03707 33.9674 4.40408 33.1754 4.77108C32.631 5.00463 32.136 5.23818 31.5915 5.47173C31.2946 5.60519 30.9976 5.70528 30.7501 5.83874C30.5521 5.93883 30.3046 6.00556 30.1066 6.10565C31.4925 4.9379 32.928 3.80352 34.3634 2.66914C34.5119 2.53568 34.6109 2.40222 34.6109 2.2354C34.6109 2.10195 34.5119 1.93512 34.3634 1.83503C34.0169 1.60148 33.5219 1.63485 33.1754 1.83503C32.8785 2.00185 32.631 2.20204 32.334 2.3355C32.1855 2.43559 31.9875 2.50232 31.839 2.60241C31.542 2.76923 31.2946 2.90269 30.9976 3.06951C30.3541 3.40315 29.7601 3.73679 29.1167 4.1038C28.3247 4.50417 27.5328 4.90454 26.7408 5.30491C26.0974 5.63855 25.4539 5.93883 24.7609 6.23911C24.2165 6.47266 23.672 6.67285 23.1275 6.90639C22.5831 7.13994 22.0386 7.34013 21.4446 7.50695C21.7416 7.24004 22.0881 6.93976 22.3851 6.67284C23.0285 6.10565 23.7215 5.57183 24.365 5.00463C24.8599 4.60426 25.4044 4.20389 25.8994 3.80352C26.1469 3.60334 26.4438 3.40315 26.6913 3.20297C26.8398 3.06951 27.0378 2.93605 27.2358 2.83596C27.2853 2.80259 27.3843 2.76923 27.4338 2.73587C27.6318 2.63577 27.7803 2.53568 27.9782 2.43559C28.1762 2.3355 28.3247 2.20204 28.4732 2.10195C28.5722 2.03522 28.6712 1.93512 28.6712 1.83503C28.7207 1.70158 28.7207 1.53475 28.5722 1.4013C28.4732 1.26784 28.2752 1.16775 28.0772 1.13438C27.8793 1.10102 27.5823 1.10102 27.4338 1.20111C27.2853 1.3012 27.0873 1.36793 26.9388 1.43466C26.6913 1.56812 26.4933 1.66821 26.2953 1.80167C26.1469 1.90176 25.9984 2.00185 25.8499 2.13531C25.5529 2.30213 25.2559 2.43559 25.0084 2.60241C24.4145 2.90269 23.8205 3.20297 23.2265 3.50324C22.7316 3.73679 22.2366 3.97034 21.7416 4.20389C21.0981 4.50417 20.5042 4.80445 19.8607 5.07136C19.0688 5.43837 18.2768 5.77201 17.4354 6.10565C17.0394 6.27247 16.6434 6.40593 16.1979 6.57275C15.7525 6.70621 15.3565 6.87303 14.911 7.00649C14.6635 7.07322 14.416 7.10658 14.218 7.17331C14.2675 7.13994 14.317 7.10658 14.317 7.03985C14.6635 6.73957 14.9605 6.47266 15.307 6.17238C15.5545 5.93883 15.802 5.70528 16.0989 5.47173C16.6434 5.00463 17.1384 4.5709 17.6828 4.1038C18.0293 3.80352 18.4253 3.46988 18.7718 3.1696C18.9698 3.00278 19.1678 2.83596 19.3657 2.66914C19.6627 2.40222 19.9597 2.13531 20.2072 1.83503C20.4052 1.63485 20.3062 1.33457 20.0587 1.16775C19.8112 1.00093 19.3657 0.934198 19.0688 1.06766C18.7718 1.20111 18.5243 1.3012 18.2768 1.46803C18.1283 1.56812 17.9798 1.63485 17.7818 1.73494C17.5344 1.8684 17.2374 2.03522 16.9899 2.16867C16.3959 2.46895 15.802 2.80259 15.208 3.10287C14.4655 3.46988 13.7726 3.83689 13.0301 4.20389C12.4362 4.50417 11.7927 4.80445 11.1987 5.10473C11.0007 5.20482 10.7532 5.30491 10.5553 5.405C10.7532 5.23818 10.9512 5.07136 11.0997 4.90454C11.4462 4.5709 11.8422 4.23726 12.1887 3.90361C12.3867 3.70343 12.6341 3.50324 12.8321 3.30306C13.0796 3.10287 13.2776 2.86932 13.4756 2.63577C13.7231 2.36886 13.8716 2.06858 14.0201 1.80167C14.0696 1.70158 14.0696 1.60148 14.0201 1.46803C13.9706 1.36793 13.9211 1.26784 13.7726 1.20111C13.4756 1.00093 13.0301 0.967562 12.6836 1.10102C12.4362 1.20111 12.1392 1.3012 11.8917 1.43466C11.5947 1.60148 11.2977 1.7683 11.0007 1.93513C10.7532 2.06858 10.5553 2.20204 10.3078 2.3355C9.9118 2.53568 9.56532 2.76923 9.16934 2.96942C7.83292 3.70343 6.54599 4.47081 5.20957 5.17145C4.7641 5.405 4.36812 5.60519 3.92265 5.83874C3.72466 5.93883 3.52667 6.03892 3.27918 6.13902C3.47717 5.93883 3.62566 5.73865 3.82365 5.53846C4.17013 5.13809 4.51661 4.73772 4.91259 4.33735C5.25907 3.97034 5.55605 3.60334 5.90253 3.23633C6.10052 3.03614 6.24901 2.83596 6.447 2.60241C6.64499 2.36886 6.89247 2.16867 7.04097 1.90176C7.09046 1.7683 7.18946 1.63485 7.18946 1.50139C7.18946 1.4013 7.13996 1.3012 7.13996 1.20111C7.09046 1.03429 6.84298 0.86747 6.59549 0.834106C6.34801 0.800741 6.00153 0.834106 5.80354 0.967563C5.06108 1.53475 4.31862 2.13531 3.57617 2.7025C3.57617 2.56905 3.47717 2.56905 3.42768 2.56905C3.22969 2.56905 2.9822 2.63577 2.88321 2.73587C2.43773 3.10287 1.99226 3.43652 1.59628 3.80352C1.10131 4.23726 0.60634 4.70436 0.111369 5.13809C-0.0371228 5.27155 -0.0371228 5.53846 0.111369 5.67192C0.25986 5.83874 0.507345 5.93883 0.804328 5.93883C0.903322 5.93883 1.05181 5.93883 1.15081 5.90547C1.2993 5.8721 1.44779 5.83874 1.54678 5.80538C1.39829 5.9722 1.20031 6.10565 1.10131 6.30584C1.00232 6.4393 0.95282 6.57275 0.903322 6.70621C0.853825 6.87303 0.853825 7.03985 0.853825 7.17331C0.853825 7.57368 1.44779 7.87396 2.04176 7.77386C2.48723 7.67377 2.9327 7.60704 3.37818 7.47359C3.72466 7.40686 4.07114 7.24004 4.46712 7.07322Z" fill="#787878"/>
</g>
<defs>
<clipPath id="clip0_1039_4716">
<rect width="131" height="9" fill="white"/>
</clipPath>
</defs>
</svg>
