<svg width="551" height="408" viewBox="0 0 551 408" fill="none" xmlns="http://www.w3.org/2000/svg">
<g opacity="0.7">
<g opacity="0.7">
<path opacity="0.7" d="M775.589 185.389L463.209 339.294" stroke="#969696" stroke-width="2" stroke-miterlimit="10" stroke-linecap="round" stroke-linejoin="round" stroke-dasharray="0.3 0.3"/>
<path opacity="0.7" d="M778.409 166.765L446.287 330.722" stroke="#969696" stroke-width="2" stroke-miterlimit="10" stroke-linecap="round" stroke-linejoin="round" stroke-dasharray="0.3 0.3"/>
<path opacity="0.7" d="M773.659 152.002L432.089 320.768" stroke="#969696" stroke-width="2" stroke-miterlimit="10" stroke-linecap="round" stroke-linejoin="round" stroke-dasharray="0.3 0.3"/>
<path opacity="0.7" d="M764.811 139.321L415.561 312.002" stroke="#969696" stroke-width="2" stroke-miterlimit="10" stroke-linecap="round" stroke-linejoin="round" stroke-dasharray="0.3 0.3"/>
<path opacity="0.7" d="M759.087 125.042L398.851 303.321" stroke="#969696" stroke-width="2" stroke-miterlimit="10" stroke-linecap="round" stroke-linejoin="round" stroke-dasharray="0.3 0.3"/>
<path opacity="0.7" d="M751.428 111.757L380.776 295.341" stroke="#969696" stroke-width="2" stroke-miterlimit="10" stroke-linecap="round" stroke-linejoin="round" stroke-dasharray="0.3 0.3"/>
<path opacity="0.7" d="M743.879 98.4193L368.201 284.559" stroke="#969696" stroke-width="2" stroke-miterlimit="10" stroke-linecap="round" stroke-linejoin="round" stroke-dasharray="0.3 0.3"/>
<path opacity="0.7" d="M736.295 85.0918L351.613 275.818" stroke="#969696" stroke-width="2" stroke-miterlimit="10" stroke-linecap="round" stroke-linejoin="round" stroke-dasharray="0.3 0.3"/>
<path opacity="0.7" d="M728.315 71.9697L339.123 264.997" stroke="#969696" stroke-width="2" stroke-miterlimit="10" stroke-linecap="round" stroke-linejoin="round" stroke-dasharray="0.3 0.3"/>
<path opacity="0.7" d="M721.905 58.0559L329.608 252.653" stroke="#969696" stroke-width="2" stroke-miterlimit="10" stroke-linecap="round" stroke-linejoin="round" stroke-dasharray="0.3 0.3"/>
<path opacity="0.7" d="M713.901 44.9377L318.185 241.279" stroke="#969696" stroke-width="2" stroke-miterlimit="10" stroke-linecap="round" stroke-linejoin="round" stroke-dasharray="0.3 0.3"/>
<path opacity="0.7" d="M705.08 32.2416L307.032 229.78" stroke="#969696" stroke-width="2" stroke-miterlimit="10" stroke-linecap="round" stroke-linejoin="round" stroke-dasharray="0.3 0.3"/>
<path opacity="0.7" d="M698.485 18.414L314.557 208.762" stroke="#969696" stroke-width="2" stroke-miterlimit="10" stroke-linecap="round" stroke-linejoin="round" stroke-dasharray="0.3 0.3"/>
</g>
<g opacity="0.7">
<path opacity="0.7" d="M660.179 19.6834L347.789 173.585" stroke="#969696" stroke-width="2" stroke-miterlimit="10" stroke-linecap="round" stroke-linejoin="round" stroke-dasharray="0.3 0.3"/>
<path opacity="0.7" d="M662.996 1.06847L330.877 165.016" stroke="#969696" stroke-width="2" stroke-miterlimit="10" stroke-linecap="round" stroke-linejoin="round" stroke-dasharray="0.3 0.3"/>
<path opacity="0.7" d="M658.249 -13.7036L316.667 155.069" stroke="#969696" stroke-width="2" stroke-miterlimit="10" stroke-linecap="round" stroke-linejoin="round" stroke-dasharray="0.3 0.3"/>
<path opacity="0.7" d="M649.402 -26.3854L300.152 146.296" stroke="#969696" stroke-width="2" stroke-miterlimit="10" stroke-linecap="round" stroke-linejoin="round" stroke-dasharray="0.3 0.3"/>
<path opacity="0.7" d="M643.674 -40.6541L283.438 137.625" stroke="#969696" stroke-width="2" stroke-miterlimit="10" stroke-linecap="round" stroke-linejoin="round" stroke-dasharray="0.3 0.3"/>
<path opacity="0.7" d="M636.018 -53.9489L265.367 129.635" stroke="#969696" stroke-width="2" stroke-miterlimit="10" stroke-linecap="round" stroke-linejoin="round" stroke-dasharray="0.3 0.3"/>
<path opacity="0.7" d="M628.467 -67.277L252.791 118.853" stroke="#969696" stroke-width="2" stroke-miterlimit="10" stroke-linecap="round" stroke-linejoin="round" stroke-dasharray="0.3 0.3"/>
<path opacity="0.7" d="M620.886 -80.6142L236.203 110.111" stroke="#969696" stroke-width="2" stroke-miterlimit="10" stroke-linecap="round" stroke-linejoin="round" stroke-dasharray="0.3 0.3"/>
<path opacity="0.7" d="M612.905 -93.7364L223.713 99.2906" stroke="#969696" stroke-width="2" stroke-miterlimit="10" stroke-linecap="round" stroke-linejoin="round" stroke-dasharray="0.3 0.3"/>
<path opacity="0.7" d="M606.495 -107.65L214.195 86.9564" stroke="#969696" stroke-width="2" stroke-miterlimit="10" stroke-linecap="round" stroke-linejoin="round" stroke-dasharray="0.3 0.3"/>
<path opacity="0.7" d="M598.492 -120.768L202.773 75.5827" stroke="#969696" stroke-width="2" stroke-miterlimit="10" stroke-linecap="round" stroke-linejoin="round" stroke-dasharray="0.3 0.3"/>
<path opacity="0.7" d="M589.667 -133.455L191.612 64.0716" stroke="#969696" stroke-width="2" stroke-miterlimit="10" stroke-linecap="round" stroke-linejoin="round" stroke-dasharray="0.3 0.3"/>
<path opacity="0.7" d="M583.076 -147.292L199.147 43.0558" stroke="#969696" stroke-width="2" stroke-miterlimit="10" stroke-linecap="round" stroke-linejoin="round" stroke-dasharray="0.3 0.3"/>
</g>
</g>
<path d="M684.525 17.7296C712.168 -12.142 747.131 -33.5895 777.308 -60.6218C803.613 -84.1812 827.782 -114.123 833.696 -149.908C839.374 -184.449 825.952 -218.427 804.293 -244.967C780.171 -274.534 746.592 -293.728 712.003 -308.652C674.2 -324.961 634.286 -336.06 597.21 -354.082C560.275 -372.056 526.344 -395.334 489.949 -414.224C462.377 -428.538 428.517 -437.29 397.847 -428.444C374.241 -421.639 355.938 -404.65 341.905 -385.08C325.878 -362.74 314.591 -337.351 303.164 -312.501C296.617 -298.234 290.211 -283.92 281.599 -270.732C271.955 -255.996 260.292 -242.597 247.081 -230.958C233.542 -219.014 218.336 -208.971 202.051 -201.204C183.302 -192.263 163.145 -187.031 142.941 -182.549C106.194 -174.406 67.8984 -167.836 37.0412 -144.699C24.0648 -134.961 12.8483 -122.571 6.30138 -107.576C-0.245497 -92.6053 -1.55957 -76.0152 1.74907 -60.0586C8.85912 -25.8459 33.9673 1.70261 63.6042 18.6917C130.575 57.1047 219.509 50.5109 277.047 106.594C304.971 133.814 320.106 170.467 339.582 203.53C356.876 232.908 379.145 262.123 411.692 275.334C444.895 288.827 482.722 281.787 513.297 264.845C546.36 246.542 570.577 216.318 589.584 184.311C594.371 176.239 598.876 168.026 603.194 159.696C607.652 151.131 611.078 142.167 615.279 133.485C615.678 132.64 614.434 131.889 614.012 132.734C609.858 141.346 604.836 149.582 600.425 158.053C595.99 166.571 591.391 175.019 586.463 183.279C576.772 199.54 565.907 215.145 553.048 229.06C528.245 255.905 494.807 276.085 457.755 278.948C439.944 280.332 421.97 277.305 405.943 269.28C390.291 261.442 377.104 249.592 365.934 236.241C342.398 208.105 328.319 173.893 309.171 142.895C299.644 127.478 288.756 112.741 275.263 100.563C261.7 88.3138 245.814 78.9276 229.153 71.5829C194.917 56.4711 157.959 49.6661 122.245 39.0362C86.6708 28.4532 50.5105 13.3181 26.646 -16.3423C5.03427 -43.2104 -5.22019 -80.6614 12.2382 -112.363C29.1803 -143.127 63.6042 -159.505 96.0805 -168.446C134.071 -178.911 173.892 -182.877 209.325 -201.251C239.22 -216.738 265.056 -239.992 283.64 -268.057C299.503 -291.992 309.288 -319.634 322.147 -345.212C333.505 -367.762 346.622 -390.617 365.957 -407.325C385.997 -424.642 411.316 -431.189 437.433 -427.904C476.41 -423.023 509.355 -399.769 542.465 -380.433C559.9 -370.249 577.476 -360.253 595.661 -351.43C613.19 -342.912 631.259 -335.99 649.562 -329.349C717.659 -304.546 800.727 -275.894 826.351 -200.101C832.006 -183.393 833.672 -165.513 830.363 -148.148C826.984 -130.455 818.936 -114.029 808.588 -99.3869C786.483 -68.0369 754.945 -45.8386 725.285 -22.2792C710.337 -10.4056 695.789 1.98413 682.953 16.1339C681.991 17.2133 683.563 18.7856 684.525 17.7296Z" fill="url(#paint0_linear_1138_1812)"/>
<path d="M522 11C522 24.2612 511.709 35 499 35C486.291 35 476 24.2612 476 11C476 -2.26119 486.291 -13 499 -13C511.709 -13 522 -2.26119 522 11Z" fill="#6D6D6D"/>
<path d="M491.293 23.3288C495.13 21.0679 495.908 15.8458 492.897 12.5646L457.227 -26.3005C453.956 -29.8652 448.141 -29.1152 445.88 -24.8371L399.95 62.1062C396.654 68.3449 403.613 74.9887 409.693 71.407L491.293 23.3288Z" fill="#3D9A9D"/>
<defs>
<linearGradient id="paint0_linear_1138_1812" x1="217.327" y1="-326.68" x2="664.807" y2="120.8" gradientUnits="userSpaceOnUse">
<stop stop-color="#333333"/>
<stop offset="0.716" stop-color="#3D9A9D"/>
<stop offset="0.8873" stop-color="#287F81"/>
<stop offset="0.99842" stop-color="#266466"/>
</linearGradient>
</defs>
</svg>
