<svg width="320" height="343" viewBox="0 0 320 343" fill="none" xmlns="http://www.w3.org/2000/svg">
<path d="M-72.0684 4.52615C-35.1291 5.75002 0.518457 23.9757 23.514 52.8763C49.1442 85.0919 52.4122 126.711 62.3251 165.186C67.0492 183.454 73.4485 201.722 84.2666 217.355C89.658 225.141 96.108 232.071 103.555 237.919C111.45 244.095 120.192 249.047 129.107 253.543C147.202 262.643 166.177 270.198 182.354 282.653C197.256 294.128 209.726 308.753 218.819 325.219C238.3 360.47 240.813 403.425 226.172 440.919C224.307 445.689 222.152 450.382 219.868 454.971C219.429 455.838 220.707 456.612 221.183 455.738C240.911 420.522 242.54 375.516 227.193 338.435C220.103 321.33 209.6 305.678 196.464 292.637C189.839 286.041 182.53 280.126 174.694 275.02C166.045 269.402 156.787 264.831 147.491 260.405C128.669 251.439 109.029 242.755 94.4971 227.319C80.9865 212.969 72.7607 194.557 67.0518 175.904C55.3119 137.544 53.8297 95.125 31.1283 60.8086C10.9084 30.25 -22.8977 9.14828 -59.223 4.40853C-63.4947 3.85141 -67.7872 3.56522 -72.0831 3.48541C-72.746 3.44601 -72.7357 4.50286 -72.0684 4.52615Z" fill="#333333"/>
<path d="M-49.1654 80.686C-36.2106 78.7386 -23.3635 83.3889 -13.2156 91.3367C-2.66356 99.5827 4.49002 111.025 9.22575 123.425C19.1203 149.355 19.0127 177.765 27.9916 203.95C32.3495 216.663 39.048 228.19 48.2414 238.022C57.2478 247.649 67.9841 255.53 79.2149 262.405C104.143 277.661 132.098 287.947 155.278 306.048C174.655 321.179 191.118 343.762 191.14 369.238C191.144 372.19 190.99 375.152 190.618 378.089C190.535 378.723 191.606 378.855 191.738 378.234C196.509 353.783 182.66 329.122 165.464 312.694C143.916 292.114 115.59 281.021 89.9074 266.771C77.9557 260.135 66.3282 252.739 56.1479 243.558C45.8557 234.277 37.5045 223.238 32.1149 210.439C21.0588 184.198 21.3821 154.983 12.5155 128.12C8.38125 115.605 2.21769 103.565 -7.40322 94.361C-16.3059 85.8322 -28.0072 79.4872 -40.5042 78.9515C-43.512 78.8185 -46.5018 79.07 -49.4724 79.6373C-50.1911 79.7381 -49.868 80.7911 -49.1654 80.686Z" fill="#333333"/>
<path d="M131.207 344.252C130.982 329.158 123.452 315.003 113.968 303.688C103.666 291.426 90.6471 281.886 76.9258 273.805C60.9232 264.367 44.002 256.487 28.5046 246.196C21.0642 241.255 13.8884 235.777 7.70216 229.317C2.22024 223.582 -2.49532 217.117 -6.23733 210.115C-13.4855 196.521 -16.9139 180.413 -12.3273 165.36C-11.76 163.501 -11.0797 161.672 -10.307 159.885C-9.94389 159.046 -11.1259 158.295 -11.5622 159.149C-18.6693 173.093 -17.2449 189.583 -11.5006 203.693C-8.48666 211.09 -4.37 217.984 0.571906 224.25C5.81108 230.891 11.9945 236.588 18.6944 241.712C33.613 253.131 50.5839 261.406 66.9789 270.411C81.5847 278.417 95.7511 287.224 107.5 299.18C118.231 310.101 126.503 323.293 129.339 338.514C129.695 340.413 129.961 342.322 130.159 344.231C130.231 344.926 131.228 344.951 131.207 344.252Z" fill="#333333"/>
</svg>
